<svg height="1550" width="720" xmlns="http://www.w3.org/2000/svg">
<rect height="1550" fill="#555" width="720"></rect>
<text fill="#7f7" font-family="Courier New" font-size="12" xml:space="preserve">
<tspan x="10" y="26">52 megabytes installed</tspan>
<tspan x="10" y="42"></tspan>
<tspan x="10" y="58">node_modules</tspan>
<tspan x="10" y="74">└─┬ searchkit@0.10.1 </tspan>
<tspan x="10" y="90">  ├─┬ axios@0.9.1 </tspan>
<tspan x="10" y="106">  │ └─┬ follow-redirects@0.0.7 </tspan>
<tspan x="10" y="122">  │   ├─┬ debug@2.6.4 </tspan>
<tspan x="10" y="138">  │   │ └── ms@0.7.3 </tspan>
<tspan x="10" y="154">  │   └── stream-consume@0.1.0 </tspan>
<tspan x="10" y="170">  ├── bem-cn@1.3.1 </tspan>
<tspan x="10" y="186">  ├── es6-promise@3.3.1 </tspan>
<tspan x="10" y="202">  ├─┬ history@2.1.2 </tspan>
<tspan x="10" y="218">  │ ├── deep-equal@1.0.1 </tspan>
<tspan x="10" y="234">  │ ├─┬ invariant@2.2.2 </tspan>
<tspan x="10" y="250">  │ │ └─┬ loose-envify@1.3.1 </tspan>
<tspan x="10" y="266">  │ │   └── js-tokens@3.0.1 </tspan>
<tspan x="10" y="282">  │ ├─┬ query-string@3.0.3 </tspan>
<tspan x="10" y="298">  │ │ └── strict-uri-encode@1.1.0 </tspan>
<tspan x="10" y="314">  │ └── warning@2.1.0 </tspan>
<tspan x="10" y="330">  ├── lodash@4.6.1 </tspan>
<tspan x="10" y="346">  ├── qs@6.0.1  (git://github.com/ssetem/qs.git#fb2b80ac750fa375e0d69643adb0840e7e04d1d3)</tspan>
<tspan x="10" y="362">  ├─┬ rc-slider@3.3.2 </tspan>
<tspan x="10" y="378">  │ ├── classnames@2.2.5 </tspan>
<tspan x="10" y="394">  │ ├── object-assign@4.1.1 </tspan>
<tspan x="10" y="410">  │ ├─┬ rc-tooltip@3.4.3 </tspan>
<tspan x="10" y="426">  │ │ ├─┬ prop-types@15.5.8 </tspan>
<tspan x="10" y="442">  │ │ │ └─┬ fbjs@0.8.12 </tspan>
<tspan x="10" y="458">  │ │ │   ├─┬ isomorphic-fetch@2.2.1 </tspan>
<tspan x="10" y="474">  │ │ │   │ ├─┬ node-fetch@1.6.3 </tspan>
<tspan x="10" y="490">  │ │ │   │ │ ├── encoding@0.1.12 </tspan>
<tspan x="10" y="506">  │ │ │   │ │ └── is-stream@1.1.0 </tspan>
<tspan x="10" y="522">  │ │ │   │ └── whatwg-fetch@2.0.3 </tspan>
<tspan x="10" y="538">  │ │ │   └── setimmediate@1.0.5 </tspan>
<tspan x="10" y="554">  │ │ └─┬ rc-trigger@1.10.3 </tspan>
<tspan x="10" y="570">  │ │   ├─┬ babel-runtime@6.23.0 </tspan>
<tspan x="10" y="586">  │ │   │ ├── core-js@2.4.1 </tspan>
<tspan x="10" y="602">  │ │   │ └── regenerator-runtime@0.10.3 </tspan>
<tspan x="10" y="618">  │ │   ├── create-react-class@15.5.2 </tspan>
<tspan x="10" y="634">  │ │   ├─┬ rc-align@2.3.4 </tspan>
<tspan x="10" y="650">  │ │   │ ├── dom-align@1.5.3 </tspan>
<tspan x="10" y="666">  │ │   │ └── rc-util@4.0.2 </tspan>
<tspan x="10" y="682">  │ │   ├─┬ rc-animate@2.3.6 </tspan>
<tspan x="10" y="698">  │ │   │ └─┬ css-animation@1.3.2 </tspan>
<tspan x="10" y="714">  │ │   │   └─┬ component-classes@1.2.6 </tspan>
<tspan x="10" y="730">  │ │   │     └── component-indexof@0.0.3 </tspan>
<tspan x="10" y="746">  │ │   └── rc-util@4.0.2 </tspan>
<tspan x="10" y="762">  │ └─┬ rc-util@3.4.1 </tspan>
<tspan x="10" y="778">  │   ├── add-dom-event-listener@1.0.2 </tspan>
<tspan x="10" y="794">  │   └─┬ shallowequal@0.2.2 </tspan>
<tspan x="10" y="810">  │     └─┬ lodash.keys@3.1.2 </tspan>
<tspan x="10" y="826">  │       ├── lodash._getnative@3.9.1 </tspan>
<tspan x="10" y="842">  │       ├── lodash.isarguments@3.1.0 </tspan>
<tspan x="10" y="858">  │       └── lodash.isarray@3.0.4 </tspan>
<tspan x="10" y="874">  ├─┬ react@0.14.9 </tspan>
<tspan x="10" y="890">  │ ├─┬ envify@3.4.1 </tspan>
<tspan x="10" y="906">  │ │ ├─┬ jstransform@11.0.3 </tspan>
<tspan x="10" y="922">  │ │ │ ├── base62@1.1.2 </tspan>
<tspan x="10" y="938">  │ │ │ ├─┬ commoner@0.10.8 </tspan>
<tspan x="10" y="954">  │ │ │ │ ├─┬ commander@2.9.0 </tspan>
<tspan x="10" y="970">  │ │ │ │ │ └── graceful-readlink@1.0.1 </tspan>
<tspan x="10" y="986">  │ │ │ │ ├─┬ detective@4.5.0 </tspan>
<tspan x="10" y="1002">  │ │ │ │ │ ├── acorn@4.0.11 </tspan>
<tspan x="10" y="1018">  │ │ │ │ │ └── defined@1.0.0 </tspan>
<tspan x="10" y="1034">  │ │ │ │ ├─┬ glob@5.0.15 </tspan>
<tspan x="10" y="1050">  │ │ │ │ │ ├─┬ inflight@1.0.6 </tspan>
<tspan x="10" y="1066">  │ │ │ │ │ │ └── wrappy@1.0.2 </tspan>
<tspan x="10" y="1082">  │ │ │ │ │ ├── inherits@2.0.3 </tspan>
<tspan x="10" y="1098">  │ │ │ │ │ ├─┬ minimatch@3.0.3 </tspan>
<tspan x="10" y="1114">  │ │ │ │ │ │ └─┬ brace-expansion@1.1.7 </tspan>
<tspan x="10" y="1130">  │ │ │ │ │ │   ├── balanced-match@0.4.2 </tspan>
<tspan x="10" y="1146">  │ │ │ │ │ │   └── concat-map@0.0.1 </tspan>
<tspan x="10" y="1162">  │ │ │ │ │ ├── once@1.4.0 </tspan>
<tspan x="10" y="1178">  │ │ │ │ │ └── path-is-absolute@1.0.1 </tspan>
<tspan x="10" y="1194">  │ │ │ │ ├── graceful-fs@4.1.11 </tspan>
<tspan x="10" y="1210">  │ │ │ │ ├── iconv-lite@0.4.16 </tspan>
<tspan x="10" y="1226">  │ │ │ │ ├─┬ mkdirp@0.5.1 </tspan>
<tspan x="10" y="1242">  │ │ │ │ │ └── minimist@0.0.8 </tspan>
<tspan x="10" y="1258">  │ │ │ │ ├── private@0.1.7 </tspan>
<tspan x="10" y="1274">  │ │ │ │ ├── q@1.5.0 </tspan>
<tspan x="10" y="1290">  │ │ │ │ └─┬ recast@0.11.23 </tspan>
<tspan x="10" y="1306">  │ │ │ │   ├── ast-types@0.9.6 </tspan>
<tspan x="10" y="1322">  │ │ │ │   ├── esprima@3.1.3 </tspan>
<tspan x="10" y="1338">  │ │ │ │   └── source-map@0.5.6 </tspan>
<tspan x="10" y="1354">  │ │ │ ├── esprima-fb@15001.1.0-dev-harmony-fb </tspan>
<tspan x="10" y="1370">  │ │ │ ├── object-assign@2.1.1 </tspan>
<tspan x="10" y="1386">  │ │ │ └─┬ source-map@0.4.4 </tspan>
<tspan x="10" y="1402">  │ │ │   └── amdefine@1.0.1 </tspan>
<tspan x="10" y="1418">  │ │ └── through@2.3.8 </tspan>
<tspan x="10" y="1434">  │ └─┬ fbjs@0.6.1 </tspan>
<tspan x="10" y="1450">  │   ├── core-js@1.2.7 </tspan>
<tspan x="10" y="1466">  │   ├─┬ promise@7.1.1 </tspan>
<tspan x="10" y="1482">  │   │ └── asap@2.0.5 </tspan>
<tspan x="10" y="1498">  │   ├── ua-parser-js@0.7.12 </tspan>
<tspan x="10" y="1514">  │   └── whatwg-fetch@0.9.0 </tspan>
<tspan x="10" y="1530">  └── react-addons-update@0.14.8</tspan>
</text>
</svg>
